<?xml version="1.0" encoding="UTF-8"?> <svg xmlns="http://www.w3.org/2000/svg" id="Layer_2" viewBox="0 0 1116.8 395.91"><defs><style>.cls-1{fill:#fff;}.cls-2{fill:#83929f;}</style></defs><g id="DESIGN"><g><g><path class="cls-1" d="M282.52,395.91h-26.8l-32.5-32.05h-40.66v32.05h-19.26v-84.17h81.02c25.72,0,38.52,10.1,38.52,26.18s-13.56,24.44-35.28,25.81l34.97,32.17Zm-99.96-70.2v23.82h59.3c13.24,0,20.79-4.12,20.79-12.1,0-7.48-6.62-11.72-18.49-11.72h-61.61Z"></path><path class="cls-1" d="M343.7,395.91h-19.26v-84.17h19.26v84.17Z"></path><path class="cls-1" d="M513.4,395.91h-20.02l-82.41-64.22v64.22h-20.18v-84.17h20.49l81.79,62.72v-62.72h20.33v84.17Z"></path><path class="cls-1" d="M626.79,340.55l61.31,55.37h-27.42l-49.45-46.63-33.26,18.08v28.56h-19.26v-84.17h19.26v38.91l70.39-38.91h31.12l-52.68,28.8Z"></path><path class="cls-1" d="M743.4,380.33h82.56v15.59h-101.82v-84.17h19.25v68.58Z"></path><path class="cls-1" d="M968.29,325.08h-90.25v20.82h79.93v13.47h-79.93v21.95h92.26v14.59h-111.52v-84.17h109.52v13.34Z"></path><path class="cls-1" d="M1066.28,368.11v27.68h-19.72v-27.68l-51.3-56.37h23.57l38.2,42.52,37.12-42.52h22.64l-50.52,56.37Z"></path></g><path class="cls-1" d="M102.75,352.02c9.24-2.99,14.02-11.1,14.02-18.45,0-12.97-11.87-21.83-32.66-21.83H0v30.33H19.25v-16.49h62.23c9.56,0,16.18,3.49,16.18,10.72,0,5.86-5.71,9.85-13.26,9.85H0s0,13.22,0,13.22H84.41c8.63,0,15.87,3.86,15.87,10.59,0,7.73-7.39,11.47-18.79,11.47H19.25v-17.51H0v31.97H84.11c26.19,0,38.2-10.72,38.2-24.32,0-9.23-7.25-17.08-19.57-19.58Z"></path></g><path class="cls-2" d="M657.99,0l-28.75,28.73L600.62,0l-28.75,28.73L543.24,0l-28.75,28.73L485.87,0l-28.75,28.73L428.5,0,210.74,217.56H874.76L657.99,0Zm-57.4,21.91l17.7,17.76-17.8,17.79-17.7-17.76,17.8-17.79Zm-57.5,57.45l17.7,17.76-17.8,17.79-17.7-17.76,17.8-17.79Zm-28.73,6.82l-17.7-17.76,17.8-17.79,17.7,17.76-17.8,17.79Zm39.68-17.76l17.8-17.79,17.7,17.76-17.8,17.79-17.7-17.76Zm-10.82-46.51l17.7,17.76-17.8,17.79-17.7-17.76,17.8-17.79Zm-57.37,0l17.7,17.76-17.8,17.79-17.7-17.76,17.8-17.79ZM248.13,202.09L428.47,21.91l17.7,17.76-162.56,162.42h-35.47Zm57.37,0L457.09,50.63l17.7,17.76-133.81,133.69h-35.47Zm57.37,0l122.84-122.73,17.7,17.76-105.06,104.97h-35.47Zm57.37,0l94.09-94,17.7,17.76-76.31,76.24h-35.47Zm57.37,0l65.33-65.27,65.04,65.27h-130.37Zm152.22,0l-75.94-76.21,17.8-17.79,93.66,94h-35.52Zm57.37,0l-104.56-104.94,17.8-17.79,122.28,122.73h-35.52Zm57.37,0l-133.18-133.67,17.8-17.79,150.9,151.45h-35.52Zm57.37,0L640.16,39.69l17.8-17.79,179.52,180.18h-35.52Z"></path></g></svg> 